<svg width="216" height="48" viewBox="0 0 216 48" fill="none" xmlns="http://www.w3.org/2000/svg">
<path d="M0 4C0 1.79086 1.79086 0 4 0H212C214.209 0 216 1.79086 216 4V44C216 46.2091 214.209 48 212 48H4C1.79086 48 0 46.2091 0 44V4Z" fill="#186CCC"/>
<path d="M27.1481 25.878L29.8841 30H32.4761L29.5601 25.716C31.1081 25.338 32.0801 24.222 32.0801 22.458C32.0801 20.19 30.5321 18.948 28.2101 18.948H23.6561V30H25.9421V25.878H27.1481ZM25.9421 20.91H28.0661C29.2181 20.91 29.8121 21.522 29.8121 22.458C29.8121 23.376 29.2181 23.988 28.0661 23.988H25.9421V20.91ZM40.8191 21.954H38.5691V27.066C38.4071 27.768 37.8131 28.182 37.1291 28.182C36.2471 28.182 35.8331 27.606 35.8331 26.76V21.954H33.6011V27.21C33.6011 28.992 34.6271 30.18 36.4271 30.18C37.3631 30.18 38.1371 29.766 38.5871 29.262V30H40.8191V21.954ZM42.7439 30H44.9759V24.906C45.1559 24.204 45.7499 23.79 46.4339 23.79C47.3159 23.79 47.7479 24.366 47.7479 25.212V30H49.9799V24.744C49.9799 22.962 48.9539 21.774 47.1359 21.774C46.1999 21.774 45.4079 22.188 44.9759 22.692V21.954H42.7439V30ZM61.6042 21.954H59.8942L58.5802 27.084L57.1402 21.954H54.9082L57.3562 30H59.4082L60.7222 25.068L62.0362 30H64.0882L66.5362 21.954H64.3762L62.9362 27.084L61.6042 21.954ZM69.9719 21.954H67.7399V30H69.9719V21.954ZM70.1699 19.632C70.1699 18.894 69.5579 18.354 68.8559 18.354C68.1359 18.354 67.5239 18.894 67.5239 19.632C67.5239 20.388 68.1359 20.91 68.8559 20.91C69.5579 20.91 70.1699 20.388 70.1699 19.632ZM72.4095 27.57C72.4095 29.352 73.4355 30.162 75.0735 30.162C75.6675 30.162 76.2075 30.072 76.5135 29.91V27.93C76.2615 28.092 75.8835 28.2 75.5415 28.2C74.9655 28.2 74.6235 27.912 74.6235 27.282V23.754H76.3875V21.954H74.6235V19.776H72.4095V21.954H71.1855V23.754H72.4095V27.57ZM78.1286 30H80.3606V24.906C80.5406 24.204 81.1346 23.79 81.8186 23.79C82.7006 23.79 83.1326 24.366 83.1326 25.212V30H85.3646V24.744C85.3646 22.962 84.3386 21.774 82.5206 21.774C81.5846 21.774 80.7926 22.188 80.3606 22.692V18.3H78.1286V30Z" fill="white"/>
<path d="M143.305 18.0987C143.072 17.9671 142.439 17.8355 141.739 17.8355C140.273 17.8355 139.041 18.5591 138.408 19.6116V18.1644H134.277V32.8662H138.408V23.7557C138.708 22.4072 139.84 21.6837 141.239 21.6837C142.006 21.6837 142.739 21.8481 143.305 22.177V18.0987Z" fill="white"/>
<path d="M154.017 28.0643C153.684 29.3141 152.652 29.9061 151.253 29.9061C149.42 29.9061 148.155 28.5905 148.021 26.3869H157.948V25.1371C157.948 20.8285 155.55 17.8355 151.186 17.8355C147.022 17.8355 144.024 21.0916 144.024 25.5318C144.024 30.0706 146.922 33.1951 151.253 33.1951C154.983 33.1951 157.315 31.1888 157.848 28.0643H154.017ZM151.219 21.1574C152.918 21.1574 153.851 22.3743 153.884 23.9202H148.121C148.488 22.1112 149.62 21.1574 151.219 21.1574Z" fill="white"/>
<path d="M163.37 11.4878H159.239V32.8662H163.37V11.4878Z" fill="white"/>
<path d="M177.874 32.8662V23.4926C177.874 19.9734 175.576 17.8355 171.612 17.8355C168.214 17.8355 165.782 19.8747 165.349 22.5388H169.28C169.613 21.6837 170.313 21.1574 171.478 21.1574C173.144 21.1574 173.91 22.177 173.91 23.4268V24.5122C173.311 24.0846 171.812 23.657 170.512 23.657C167.281 23.657 164.749 25.5647 164.749 28.3603C164.749 31.4191 167.281 33.1293 170.279 33.1293C171.911 33.1293 173.411 32.5702 173.91 32.0769V32.8662H177.874ZM173.91 28.8536C173.544 29.643 172.411 30.1364 171.212 30.1364C169.913 30.1364 168.58 29.6101 168.58 28.3274C168.58 27.0776 169.913 26.5185 171.212 26.5185C172.411 26.5185 173.544 27.0118 173.91 27.8012V28.8536Z" fill="white"/>
<path d="M185.705 38.293L193.467 18.1644H189.303L185.905 27.9327L182.474 18.1644H178.11L183.806 32.932L181.641 38.293H185.705Z" fill="white"/>
<path fill-rule="evenodd" clip-rule="evenodd" d="M113.956 12.7637L102.75 24L113.956 35.2363L125.161 24L113.956 12.7637ZM98 24L113.956 40L129.911 24L113.956 8L98 24Z" fill="white"/>
<path fill-rule="evenodd" clip-rule="evenodd" d="M109.431 17.301L102.75 24L109.431 30.699L116.111 24L109.431 17.301ZM98 24L109.431 35.4627L120.862 24L109.431 12.5373L98 24Z" fill="white"/>
<path fill-rule="evenodd" clip-rule="evenodd" d="M104.92 21.8245L102.75 24L104.92 26.1755L107.089 24L104.92 21.8245ZM98 24L104.92 30.9392L111.84 24L104.92 17.0608L98 24Z" fill="white"/>
</svg>
