<svg width="82" height="36" viewBox="0 0 82 36" fill="none" xmlns="http://www.w3.org/2000/svg">
<path d="M0 4C0 1.79086 1.79086 0 4 0H78C80.2091 0 82 1.79086 82 4V32C82 34.2091 80.2091 36 78 36H4C1.79086 36 0 34.2091 0 32V4Z" fill="#594AFF"/>
<path d="M31.74 20.346L34.044 24H37.248L34.656 20.04C36.006 19.536 36.852 18.384 36.852 16.71C36.852 14.298 35.214 12.948 32.838 12.948H27.87V24H30.732V20.346H31.74ZM30.732 15.378H32.532C33.558 15.378 34.026 15.9 34.026 16.71C34.026 17.52 33.558 18.042 32.532 18.042H30.732V15.378ZM45.8752 15.9H43.0492V20.814C42.9052 21.372 42.4192 21.714 41.8972 21.714C41.1772 21.714 40.8532 21.228 40.8532 20.544V15.9H38.0452V21.21C38.0452 23.01 39.1072 24.18 40.8892 24.18C41.8072 24.18 42.6172 23.802 43.0492 23.298V24H45.8752V15.9ZM47.38 24H50.206V19.104C50.35 18.546 50.818 18.222 51.376 18.222C52.096 18.222 52.438 18.708 52.438 19.374V24H55.246V18.69C55.246 16.89 54.184 15.72 52.384 15.72C51.448 15.72 50.656 16.098 50.206 16.602V15.9H47.38V24Z" fill="white"/>
</svg>
